HIERARCHY
ROOT Hips
{
	OFFSET 0.000000 0.000000 0.000000
	CHANNELS 6 Xposition Yposition Zposition Yrotation Xrotation Zrotation
	JOINT Chest
	{
		OFFSET 0.000000 1.127713 10.149404
		CHANNELS 6 Xposition Yposition Zposition Yrotation Xrotation Zrotation
		JOINT Chest2
		{
			OFFSET 0.000000 0.000001 11.268527
			CHANNELS 6 Xposition Yposition Zposition Yrotation Xrotation Zrotation
			JOINT Chest3
			{
				OFFSET 0.000000 0.001080 10.288218
				CHANNELS 6 Xposition Yposition Zposition Yrotation Xrotation Zrotation
				JOINT Chest4
				{
					OFFSET 0.000000 0.001081 10.276731
					CHANNELS 6 Xposition Yposition Zposition Yrotation Xrotation Zrotation
					JOINT Neck
					{
						OFFSET 0.000000 0.000001 14.388412
						CHANNELS 6 Xposition Yposition Zposition Yrotation Xrotation Zrotation
						JOINT Head
						{
							OFFSET 0.000000 -0.002320 9.567978
							CHANNELS 6 Xposition Yposition Zposition Yrotation Xrotation Zrotation
							End Site
							{
								OFFSET 0.000000 -0.000311 17.765411
							}
						}
					}
					JOINT RightCollar
					{
						OFFSET -3.132497 0.000001 8.066086
						CHANNELS 6 Xposition Yposition Zposition Yrotation Xrotation Zrotation
						JOINT RightShoulder
						{
							OFFSET -14.645328 0.000000 0.000000
							CHANNELS 6 Xposition Yposition Zposition Yrotation Xrotation Zrotation
							JOINT RightElbow
							{
								OFFSET 0.000000 -0.000002 -31.323030
								CHANNELS 6 Xposition Yposition Zposition Yrotation Xrotation Zrotation
								JOINT RightWrist
								{
									OFFSET 0.000000 -0.000002 -25.610935
									CHANNELS 6 Xposition Yposition Zposition Yrotation Xrotation Zrotation
									End Site
									{
										OFFSET 0.000000 -0.000001 -19.138220
									}
								}
							}
						}
					}
					JOINT LeftCollar
					{
						OFFSET 3.132497 0.000001 8.066086
						CHANNELS 6 Xposition Yposition Zposition Yrotation Xrotation Zrotation
						JOINT LeftShoulder
						{
							OFFSET 14.645328 0.000000 0.000000
							CHANNELS 6 Xposition Yposition Zposition Yrotation Xrotation Zrotation
							JOINT LeftElbow
							{
								OFFSET 0.000000 -0.000002 -31.323030
								CHANNELS 6 Xposition Yposition Zposition Yrotation Xrotation Zrotation
								JOINT LeftWrist
								{
									OFFSET 0.000000 -0.000002 -25.610935
									CHANNELS 6 Xposition Yposition Zposition Yrotation Xrotation Zrotation
									End Site
									{
										OFFSET 0.000000 -0.000001 -19.138220
									}
								}
							}
						}
					}
				}
			}
		}
	}
	JOINT RightHip
	{
		OFFSET -8.349073 0.000420 0.003782
		CHANNELS 6 Xposition Yposition Zposition Yrotation Xrotation Zrotation
		JOINT RightKnee
		{
			OFFSET 0.000000 0.000252 -43.250797
			CHANNELS 6 Xposition Yposition Zposition Yrotation Xrotation Zrotation
			JOINT RightAnkle
			{
				OFFSET 0.000000 0.000426 -42.243721
				CHANNELS 6 Xposition Yposition Zposition Yrotation Xrotation Zrotation
				JOINT RightToe
				{
					OFFSET 0.000000 -17.111912 -7.531273
					CHANNELS 6 Xposition Yposition Zposition Yrotation Xrotation Zrotation
					End Site
					{
						OFFSET 0.000000 -7.141665 -1.639313
					}
				}
			}
		}
	}
	JOINT LeftHip
	{
		OFFSET 8.349073 0.000167 0.001501
		CHANNELS 6 Xposition Yposition Zposition Yrotation Xrotation Zrotation
		JOINT LeftKnee
		{
			OFFSET 0.000000 0.000252 -43.250797
			CHANNELS 6 Xposition Yposition Zposition Yrotation Xrotation Zrotation
			JOINT LeftAnkle
			{
				OFFSET 0.000000 0.000426 -42.243713
				CHANNELS 6 Xposition Yposition Zposition Yrotation Xrotation Zrotation
				JOINT LeftToe
				{
					OFFSET 0.000000 -17.111914 -7.531273
					CHANNELS 6 Xposition Yposition Zposition Yrotation Xrotation Zrotation
					End Site
					{
						OFFSET 0.000000 -7.141665 -1.639313
					}
				}
			}
		}
	}
}
MOTION
Frames: 4
Frame Time: 0.041667
140.617630 2269.074707 3260.356445 3.845168 78.115050 -175.246562 -0.000038 1.126860 10.150196 0.085445 -4.787962 0.145512 0.000008 -0.000013 11.268324 0.098512 -4.787751 0.136477 -0.000088 0.001141 10.288099 0.116658 1.017987 0.076812 -0.000042 0.000998 10.276279 0.116674 1.017887 0.076812 -0.000002 0.000513 14.388628 -2.856989 -12.694902 0.929522 -0.000183 -0.002641 9.567478 -5.980092 -1.707833 -5.096382 -3.132570 -0.000690 8.064974 -4.129592 0.000103 -14.131296 -14.645259 0.000501 0.000012 -5.977171 -7.747443 6.430545 0.000107 -0.000484 -31.322376 -8.818999 10.940201 0.000003 -0.000008 -0.000561 -25.611475 8.628157 0.000042 6.515567 3.132507 -0.000445 8.066047 -0.829345 0.000023 13.681216 14.645266 -0.000564 0.000237 6.298062 -17.583484 -8.215311 -0.000046 0.000115 -31.322912 1.918899 21.454405 0.000002 -0.000024 -0.000505 -25.611143 -7.753517 -0.000036 -16.598080 -8.349110 0.000918 0.004422 2.931499 -16.729732 -5.123056 -0.000055 -0.000034 -43.250046 0.000005 -1.560337 0.000000 -0.000067 0.000653 -42.243328 7.203001 6.575610 6.515443 0.000035 -17.112713 -7.532004 -0.000001 -2.167631 -0.000001 8.349072 0.000214 0.001460 -5.290679 -14.951895 4.408365 -0.000082 -0.000256 -43.251091 0.000005 -4.750737 -0.000001 0.000108 -0.000028 -42.244480 -9.235204 2.325701 -3.917034 0.000214 -17.112215 -7.530933 0.000007 7.112568 0.000001 
140.561417 2269.271240 3260.365479 3.895280 78.105481 -175.196333 -0.000015 1.127836 10.150116 0.085657 -4.796862 0.147421 0.000038 -0.000190 11.268537 0.098847 -4.796654 0.138284 -0.000099 0.000797 10.288617 0.117236 1.019489 0.070012 -0.000034 0.001458 10.276881 0.117248 1.019388 0.070011 -0.000004 0.000635 14.388756 -2.864240 -12.719434 0.920283 -0.000153 -0.002451 9.567910 -5.995225 -1.688769 -5.086906 -3.132584 -0.000745 8.065655 -4.131427 0.000102 -14.130474 -14.645305 0.000222 0.000218 -5.978339 -7.738533 6.428090 0.000145 -0.000215 -31.322685 -8.812197 10.923201 0.000002 0.000100 -0.000705 -25.611437 8.621564 0.000042 6.518551 3.132505 -0.000299 8.066254 -0.822573 0.000023 13.687843 14.645372 -0.000612 0.000056 6.328618 -17.600040 -8.208086 -0.000061 0.000582 -31.322340 1.893499 21.497206 0.000002 -0.000069 -0.000636 -25.610806 -7.683381 -0.000037 -16.625401 -8.349083 0.001924 0.004106 2.934033 -16.743241 -5.120913 -0.000047 0.000163 -43.250248 0.000005 -1.547236 0.000001 -0.000091 0.000912 -42.243324 7.214431 6.567663 6.515739 0.000043 -17.112852 -7.531611 -0.000001 -2.171836 -0.000001 8.349106 0.001052 0.001195 -5.288629 -14.951728 4.411676 0.000024 -0.000350 -43.251072 0.000006 -4.758337 -0.000001 0.000062 0.000156 -42.244339 -9.226895 2.329560 -3.927457 0.000245 -17.112307 -7.531118 0.000007 7.098981 0.000001 
140.823746 2268.943359 3260.506104 4.008720 78.128519 -175.076873 -0.000015 1.127694 10.150661 0.086450 -4.779664 0.151731 0.000046 -0.000334 11.268239 0.100030 -4.779453 0.142496 -0.000069 0.001026 10.288687 0.118841 1.004189 0.065310 -0.000046 0.001077 10.276327 0.118847 1.004089 0.065310 -0.000019 0.000508 14.388856 -2.859436 -12.673581 0.964499 -0.000107 -0.002412 9.567685 -5.987675 -1.742892 -5.190685 -3.132581 -0.000353 8.065301 -4.081886 0.000102 -14.168325 -14.645319 0.000542 0.000381 -6.033445 -7.736231 6.455707 0.000100 -0.000253 -31.322981 -8.795399 10.954802 0.000002 -0.000008 -0.000641 -25.611700 8.540314 0.000042 6.452072 3.132494 -0.000295 8.065966 -0.819772 0.000024 13.679147 14.645336 0.000131 0.000117 6.335709 -17.569019 -8.198160 -0.000038 0.000205 -31.322874 1.924603 21.457304 0.000003 0.000015 -0.000603 -25.610777 -7.715342 -0.000037 -16.602380 -8.349087 0.001679 0.004711 2.913157 -16.734573 -5.120784 -0.000047 -0.000117 -43.250565 0.000005 -1.535737 0.000001 -0.000090 0.001188 -42.243233 7.245028 6.553693 6.481835 0.000013 -17.112789 -7.531478 0.000001 -2.131530 -0.000001 8.349091 0.001135 0.001628 -5.210301 -14.948414 4.381688 0.000048 -0.000179 -43.251072 0.000005 -4.718639 -0.000000 0.000093 0.000431 -42.244114 -9.271342 2.310708 -3.928502 0.000230 -17.112240 -7.530732 0.000007 7.118380 0.000001 
140.805008 2269.402588 3260.778076 4.163481 78.085892 -174.913399 -0.000031 1.127356 10.150135 0.087598 -4.799361 0.138589 0.000023 -0.000528 11.268554 0.099977 -4.799156 0.129355 -0.000065 0.000939 10.288413 0.117277 0.995187 0.073311 -0.000023 0.000980 10.276279 0.117270 0.995089 0.073311 0.000004 0.000571 14.388810 -2.858793 -12.697520 0.979862 -0.000115 -0.002681 9.567987 -5.988886 -1.713372 -5.230464 -3.132562 -0.000436 8.065107 -4.091042 0.000100 -14.155996 -14.645365 0.000169 0.000196 -5.941131 -7.732718 6.431326 0.000176 -0.000654 -31.322430 -8.897604 10.857402 0.000003 0.000068 -0.000733 -25.611155 8.597827 0.000042 6.449025 3.132511 -0.000002 8.066210 -0.767602 0.000023 13.653915 14.645472 -0.000248 -0.000148 6.321765 -17.546208 -8.154816 -0.000068 0.000840 -31.322906 1.965701 21.398400 0.000002 -0.000031 -0.000754 -25.611219 -7.684622 -0.000038 -16.565307 -8.349113 0.001501 0.004414 2.961126 -16.768763 -5.140512 -0.000047 0.000136 -43.250137 0.000005 -1.541838 0.000000 -0.000090 0.001195 -42.243286 7.216859 6.550679 6.553368 0.000020 -17.112869 -7.531476 0.000000 -2.152043 -0.000001 8.349075 0.000459 0.001332 -5.285406 -14.997656 4.404235 -0.000067 -0.000199 -43.250946 0.000005 -4.664437 -0.000001 0.000064 0.000472 -42.244221 -9.172930 2.267025 -3.852627 0.000268 -17.112404 -7.531228 0.000005 7.204163 0.000002 
